<svg xmlns="http://www.w3.org/2000/svg" version="1.1" xmlns:xlink="http://www.w3.org/1999/xlink" width="512" height="512" x="0" y="0" viewBox="0 0 24 24" style="enable-background:new 0 0 512 512" xml:space="preserve" class=""><g><g data-name="Layer 2"><path d="M19.5 2.25h-15A2.25 2.25 0 0 0 2.25 4.5v15a2.25 2.25 0 0 0 2.25 2.25h15a2.25 2.25 0 0 0 2.25-2.25v-15a2.25 2.25 0 0 0-2.25-2.25zm-15 1.5h15a.76.76 0 0 1 .75.75v2.75H3.75V4.5a.76.76 0 0 1 .75-.75zm15 16.5h-15a.76.76 0 0 1-.75-.75V8.75h16.5V19.5a.76.76 0 0 1-.75.75z" fill="#666666" opacity="1" data-original="#000000" class=""></path><path d="M9.5 6.25h-1a.75.75 0 0 1 0-1.5h1a.75.75 0 0 1 0 1.5zM6.5 6.25h-1a.75.75 0 0 1 0-1.5h1a.75.75 0 0 1 0 1.5z" fill="#666666" opacity="1" data-original="#000000" class=""></path><g fill="#f25220"><path d="M10.5 10.75a.76.76 0 0 0-.75.75V15a1.75 1.75 0 0 1-3.5 0v-3.5a.75.75 0 0 0-1.5 0V15a3.25 3.25 0 0 0 6.5 0v-3.5a.76.76 0 0 0-.75-.75zM17 14.5l2.08-2.5a.75.75 0 1 0-1.16-1L16 13.33 14.08 11a.75.75 0 0 0-1.16 1L15 14.5 12.92 17a.76.76 0 0 0 .1 1.06.78.78 0 0 0 .48.17.76.76 0 0 0 .58-.27L16 15.67 17.92 18a.76.76 0 0 0 .58.27.78.78 0 0 0 .48-.17.76.76 0 0 0 .1-1.06z" fill="#d63447" opacity="1" data-original="#f25220" class=""></path></g></g></g></svg>