<svg xmlns="http://www.w3.org/2000/svg" version="1.1" xmlns:xlink="http://www.w3.org/1999/xlink" width="512" height="512" x="0" y="0" viewBox="0 0 24 24" style="enable-background:new 0 0 512 512" xml:space="preserve" class=""><g><g fill-rule="evenodd" clip-rule="evenodd"><path fill="#666666" d="M4 4a3 3 0 0 1 3-3h10a3 3 0 0 1 3 3v16a3 3 0 0 1-3 3H7a3 3 0 0 1-3-3zm3-1a1 1 0 0 0-1 1v16a1 1 0 0 0 1 1h10a1 1 0 0 0 1-1V4a1 1 0 0 0-1-1z" opacity="1" data-original="#3747d6" class=""></path><path fill="#666666" d="M14 20.5h-4v-2h4z" opacity="1" data-original="#3747d6" class=""></path><g fill="#9545ed"><path d="M6.5 5a1 1 0 0 1 1-1h3a1 1 0 0 1 1 1v3a1 1 0 0 1-1 1h-3a1 1 0 0 1-1-1zm2 1v1h1V6zM12.5 5a1 1 0 0 1 1-1h3a1 1 0 0 1 1 1v3a1 1 0 0 1-1 1h-3a1 1 0 0 1-1-1zm2 1v1h1V6zM6.5 11a1 1 0 0 1 1-1h3a1 1 0 0 1 1 1v3a1 1 0 0 1-1 1h-3a1 1 0 0 1-1-1zm2 1v1h1v-1z" fill="#d63447" opacity="1" data-original="#9545ed" class=""></path></g></g></g></svg>