<svg xmlns="http://www.w3.org/2000/svg" version="1.1" xmlns:xlink="http://www.w3.org/1999/xlink" width="512" height="512" x="0" y="0" viewBox="0 0 64 64" style="enable-background:new 0 0 512 512" xml:space="preserve" class=""><g><g fill-rule="evenodd" clip-rule="evenodd"><g fill="#000"><path d="M30 50a8 8 0 0 0-8-8H10a8 8 0 0 0-8 8v4a8 8 0 0 0 8 8h12a8 8 0 0 0 8-8zm-8-4a4 4 0 0 1 4 4v4a4 4 0 0 1-4 4H10a4 4 0 0 1-4-4v-4a4 4 0 0 1 4-4zM42 62a8 8 0 0 1-8-8V34a8 8 0 0 1 8-8h12a8 8 0 0 1 8 8v20a8 8 0 0 1-8 8zm-4-8a4 4 0 0 0 4 4h12a4 4 0 0 0 4-4V34a4 4 0 0 0-4-4H42a4 4 0 0 0-4 4zM34 14a8 8 0 0 0 8 8h12a8 8 0 0 0 8-8v-4a8 8 0 0 0-8-8H42a8 8 0 0 0-8 8zm8 4a4 4 0 0 1-4-4v-4a4 4 0 0 1 4-4h12a4 4 0 0 1 4 4v4a4 4 0 0 1-4 4z" fill="#666666" opacity="1" data-original="#000000" class=""></path></g><path fill="#d63447" d="M30 10a8 8 0 0 0-8-8H10a8 8 0 0 0-8 8v20a8 8 0 0 0 8 8h12a8 8 0 0 0 8-8zm-8-4a4 4 0 0 1 4 4v20a4 4 0 0 1-4 4H10a4 4 0 0 1-4-4V10a4 4 0 0 1 4-4z" opacity="1" data-original="#fa1228" class=""></path></g></g></svg>