<svg xmlns="http://www.w3.org/2000/svg" version="1.1" xmlns:xlink="http://www.w3.org/1999/xlink" width="512" height="512" x="0" y="0" viewBox="0 0 24 24" style="enable-background:new 0 0 512 512" xml:space="preserve" class=""><g><g fill-rule="evenodd" clip-rule="evenodd"><path fill="#d63447" d="M8.839 5.563a2.706 2.706 0 0 0 0 5.411v2a4.706 4.706 0 0 1 0-9.412z" opacity="1" data-original="#9545ed" class=""></path><path fill="#d63447" d="M8.838 12.974a5.588 5.588 0 0 0-5.588 5.588h-2a7.588 7.588 0 0 1 7.588-7.588z" opacity="1" data-original="#9545ed" class=""></path><g fill="#3747d6"><path d="M14.75 5.563a2.938 2.938 0 1 0 0 5.875 2.938 2.938 0 0 0 0-5.876zM9.812 8.5a4.938 4.938 0 1 1 9.876 0 4.938 4.938 0 0 1-9.875 0z" fill="#666666" opacity="1" data-original="#3747d6" class=""></path><path d="M14.75 13.438a6 6 0 0 0-6 6h-2a8 8 0 1 1 16 0h-2a6 6 0 0 0-6-6z" fill="#666666" opacity="1" data-original="#3747d6" class=""></path></g></g></g></svg>