<svg xmlns="http://www.w3.org/2000/svg" version="1.1" xmlns:xlink="http://www.w3.org/1999/xlink" width="512" height="512" x="0" y="0" viewBox="0 0 24 24" style="enable-background:new 0 0 512 512" xml:space="preserve" class=""><g><path d="M8 11.75h4a3.23 3.23 0 0 1 2.83 1.66.74.74 0 0 0 1 .28.75.75 0 0 0 .29-1 4.76 4.76 0 0 0-2.87-2.24 4.75 4.75 0 1 0-6.53 0A4.75 4.75 0 0 0 3.25 15v5A1.76 1.76 0 0 0 5 21.75h10a1.74 1.74 0 0 0 .61-.11.74.74 0 0 0 .39-1 .77.77 0 0 0-1-.41H5a.25.25 0 0 1-.25-.23v-5A3.26 3.26 0 0 1 8 11.75zm2-8A3.25 3.25 0 1 1 6.75 7 3.26 3.26 0 0 1 10 3.75z" fill="#666666" opacity="1" data-original="#000000" class=""></path><g fill="#f25220"><path d="M16 21.75A4.75 4.75 0 1 1 20.75 17 4.75 4.75 0 0 1 16 21.75zm0-8A3.25 3.25 0 1 0 19.25 17 3.26 3.26 0 0 0 16 13.75z" fill="#d63447" opacity="1" data-original="#f25220" class=""></path><path d="m16 14.5.73 1.48 1.64.24-1.19 1.15.28 1.63-1.46-.77-1.46.77.28-1.63-1.19-1.15 1.64-.24z" fill="#d63447" opacity="1" data-original="#f25220" class=""></path></g></g></svg>